<?xml version="1.0" encoding="UTF-8"?>
<svg id="Layer_1" xmlns="http://www.w3.org/2000/svg" version="1.1" xmlns:xlink="http://www.w3.org/1999/xlink" viewBox="0 0 244.42 45.84">
  <!-- Generator: Adobe Illustrator 30.0.0, SVG Export Plug-In . SVG Version: 2.1.1 Build 123)  -->
  <defs>
    <style>
      .st0 {
        letter-spacing: .28em;
      }

      .st1 {
        letter-spacing: .28em;
      }

      .st2 {
        fill: none;
      }

      .st3 {
        letter-spacing: .28em;
      }

      .st4 {
        letter-spacing: 0em;
      }

      .st5 {
        font-family: CenturyGothic, 'Century Gothic';
        font-size: 8.35px;
      }

      .st6 {
        fill: url(#linear-gradient);
      }

      .st7 {
        clip-path: url(#clippath);
      }

      .st8 {
        letter-spacing: .28em;
      }
    </style>
    <clipPath id="clippath">
      <path class="st2" d="M83.71.68c0,1.98,0,3.96,0,5.94,0,.94-.2,1.13-1.14,1.14-1.68,0-3.36,0-5.03,0h-3.59c-.73,0-.77.02-.7.73.32,3.48,1.95,6.19,4.87,8.1,1.37.89,2.89,1.37,4.51,1.53.91.09,1.07.27,1.08,1.18.01,1.02.02,2.04,0,3.06-.01.69-.28.92-.97.92-1.11,0-2.21,0-3.32,0h-1.99c-.33,0-.66,0-1,0-.86,0-1.71,0-2.57,0-.59,0-.7.09-.6.66.15.96.26,1.96.61,2.85,1.59,4.11,4.63,6.39,9.01,6.88.67.08.7.03.7-.66,0-2,0-4,0-6,0-.86.22-1.08,1.07-1.08,1.44,0,2.88,0,4.31,0h0c1.5,0,3,0,4.5,0,.59,0,.64-.05.59-.65-.02-.25-.07-.5-.1-.74-.46-3.31-2.16-5.81-4.98-7.55-1.35-.83-2.83-1.3-4.42-1.42-.77-.06-.97-.29-.97-1.08,0-.98,0-1.96,0-2.94,0-.95.2-1.14,1.13-1.14,2.67,0,5.33,0,8,0,.29,0,.58-.01.87,0,.35.02.51-.13.47-.48-.04-.35-.06-.71-.11-1.05C93.27,4.13,89.2.33,84.42.01c-.12,0-.22-.01-.31-.01-.38,0-.4.12-.4.68"/>
    </clipPath>
    <linearGradient id="linear-gradient" x1="-393.09" y1="820.62" x2="-392.21" y2="820.62" gradientTransform="translate(-27593.58 -57863.32) rotate(-180) scale(70.53 -70.53)" gradientUnits="userSpaceOnUse">
      <stop offset="0" stop-color="#fff9cc"/>
      <stop offset=".11" stop-color="#faefba"/>
      <stop offset=".34" stop-color="#edd88d"/>
      <stop offset=".37" stop-color="#ecd587"/>
      <stop offset=".69" stop-color="#e8b91f"/>
      <stop offset="1" stop-color="#c0902e"/>
    </linearGradient>
  </defs>
  <path d="M106.39,30.08c-1.18-.33-2.14-.81-2.89-1.43-.75-.62-1.12-1.34-1.12-2.16v-3.98h.95c.34,2.32,1.06,3.98,2.15,5s2.61,1.53,4.56,1.53c1.32,0,2.36-.28,3.13-.85.77-.57,1.16-1.38,1.16-2.45,0-.91-.28-1.68-.85-2.31-.57-.64-1.45-1.33-2.66-2.08l-4.19-2.52c-1.52-.88-2.6-1.8-3.25-2.76-.65-.95-.97-2.07-.97-3.34,0-1.79.69-3.21,2.06-4.26,1.37-1.04,3.23-1.57,5.57-1.57,1.27,0,2.5.17,3.68.49,1.18.33,2.14.81,2.89,1.43.75.62,1.12,1.34,1.12,2.16v3.98h-.95c-.39-2.31-1.1-3.98-2.14-5-1.04-1.02-2.45-1.53-4.22-1.53-1.23,0-2.2.3-2.91.89-.71.59-1.07,1.39-1.07,2.42,0,.88.28,1.62.83,2.2.56.58,1.46,1.23,2.71,1.96l4.19,2.49c1.59.93,2.73,1.83,3.42,2.71.69.87,1.04,1.92,1.04,3.15,0,1.97-.74,3.52-2.23,4.65-1.49,1.12-3.59,1.69-6.31,1.69-1.27,0-2.5-.17-3.68-.49"/>
  <path d="M123.11,11.96c0-1.16-.16-2.01-.48-2.57-.32-.56-.95-.83-1.91-.83h-.34v-1.02h9.36c2.34,0,4.45.46,6.35,1.38,1.89.92,2.84,2.74,2.84,5.46,0,1.77-.49,3.14-1.48,4.12-.99.98-2.09,1.62-3.32,1.94-1.23.32-2.35.48-3.37.48h-3.23v9.09h-4.43V11.96ZM129.57,19.55c1.34,0,2.44-.41,3.3-1.23s1.29-2.19,1.29-4.12-.43-3.27-1.28-4.08c-.85-.82-1.9-1.23-3.15-1.23-.66,0-1.17.05-1.53.14l-.68.1v10.42h2.04Z"/>
  <path d="M165.23,29.17c-1.69-1.01-2.98-2.39-3.86-4.14-.89-1.75-1.33-3.72-1.33-5.92s.49-4.34,1.46-6.21c.98-1.87,2.32-3.35,4.03-4.42,1.71-1.08,3.63-1.62,5.74-1.62,2,0,3.66.26,5,.77,1.34.51,2.36,1.17,3.06,1.99.41.52.66,1.17.75,1.94.09.77.14,1.85.14,3.23h-1.02c-.43-2.09-1.23-3.68-2.38-4.77-1.16-1.09-2.67-1.63-4.53-1.63-2.31,0-4.14.82-5.48,2.45-1.34,1.63-2.01,4.39-2.01,8.27,0,2.88.61,5.28,1.84,7.18,1.23,1.91,3.11,2.86,5.65,2.86,1.59,0,3.05-.42,4.37-1.26,1.33-.84,2.4-2.04,3.22-3.61l1.19.92c-1.09,1.91-2.41,3.3-3.95,4.17-1.54.87-3.5,1.31-5.85,1.31s-4.35-.51-6.04-1.51"/>
  <path d="M185.13,11.96c0-1.16-.16-2.01-.48-2.57-.32-.56-.95-.83-1.91-.83h-.34v-1.02h15.01c1.93,0,2.89.91,2.89,2.72v2.89h-1.02c0-1.41-.36-2.44-1.07-3.1-.71-.66-1.78-.99-3.18-.99h-5.48v8.51h8.85v1.53h-8.85v9.36h5.82c1.29,0,2.37-.29,3.23-.87.86-.58,1.58-1.58,2.14-3.01l.92.34-.99,2.69c-.3.82-.65,1.42-1.05,1.8-.41.39-1.04.58-1.91.58h-12.6V11.96Z"/>
  <path d="M217.98,29.23c-1.02-.74-2.09-2.01-3.2-3.83l-3.4-5.68h-1.36v10.28h-4.46V11.96c0-1.16-.16-2.01-.48-2.57-.32-.56-.95-.83-1.91-.83h-.34v-1.02h9.4c2.36,0,4.48.43,6.36,1.29,1.88.86,2.83,2.52,2.83,4.97,0,2.84-1.84,4.72-5.51,5.65l3.57,5.96c1.34,2.25,2.75,3.5,4.22,3.74v.85c-.18.09-.51.17-.99.24-.48.07-.92.1-1.33.1-1.25,0-2.38-.37-3.4-1.11M212.05,18.36c1.27,0,2.35-.38,3.25-1.14.9-.76,1.34-1.96,1.34-3.59s-.44-2.8-1.33-3.57c-.89-.77-1.92-1.16-3.1-1.16-.66,0-1.17.05-1.53.14l-.68.1v9.23h2.04Z"/>
  <path d="M232.27,21.01l-6.03-9.05c-.68-.98-1.42-1.83-2.23-2.55-.81-.73-1.57-1.12-2.3-1.19v-.68h3.71c1.16,0,2.21.36,3.15,1.09.94.73,1.74,1.61,2.4,2.66l4.63,6.98,6.6-10.72h2.21l-7.73,12.56v9.9h-4.43v-8.99Z"/>
  <path d="M24.57,11.92c0-1.02-.14-1.85-.43-2.48-.29-.63-.94-.94-1.96-.94h-.34v-1.02h9.22c1.07,0,2.2.06,3.38.17,1.18.11,2.27.38,3.26.79.99.41,1.81,1.01,2.46,1.81.65.8.97,1.87.97,3.21,0,.48-.1.97-.29,1.47-.19.5-.49.97-.89,1.42-.4.44-.89.84-1.49,1.19-.59.35-1.29.63-2.08.84,1.11.11,2.04.34,2.78.67.74.33,1.33.73,1.78,1.21.44.48.76,1.02.94,1.62.18.6.27,1.23.27,1.89,0,1.3-.3,2.36-.89,3.18s-1.37,1.46-2.32,1.91c-.96.46-2.04.76-3.24.92-1.21.16-2.41.24-3.62.24h-7.51V11.92ZM31.06,8.84c-.27,0-.53.01-.79.03-.25.02-.47.06-.65.1-.23.05-.43.08-.61.1v8.6h2.56c1.39,0,2.53-.33,3.43-.99.9-.66,1.35-1.8,1.35-3.41,0-.84-.15-1.55-.46-2.12-.31-.57-.71-1.02-1.19-1.37-.49-.34-1.05-.58-1.69-.73-.64-.15-1.29-.22-1.95-.22M31.57,28.65c1.89,0,3.33-.41,4.32-1.23.99-.82,1.49-1.98,1.49-3.48,0-3.14-1.94-4.71-5.8-4.71h-2.56v9.08c.21.07.43.13.68.17.45.11,1.02.17,1.71.17h.17Z"/>
  <path d="M63.86,14.75c-.43-2.07-1.22-3.66-2.37-4.76-1.15-1.1-2.67-1.66-4.56-1.66-1.05,0-2.03.17-2.94.51-.91.34-1.71.93-2.39,1.76-.68.83-1.22,1.94-1.6,3.31-.39,1.38-.58,3.1-.58,5.17,0,1.3.14,2.56.41,3.77.27,1.22.71,2.29,1.31,3.23.6.93,1.38,1.68,2.32,2.24.94.56,2.1.84,3.47.84,1.57,0,3.03-.42,4.37-1.25,1.34-.83,2.42-2.04,3.24-3.64l1.2.92c-1.07,1.89-2.38,3.28-3.93,4.17-1.55.89-3.52,1.33-5.91,1.33-1.8,0-3.4-.3-4.8-.89-1.4-.59-2.58-1.41-3.53-2.46-.96-1.05-1.68-2.28-2.18-3.69-.5-1.41-.75-2.94-.75-4.57,0-1.73.28-3.34.85-4.83.57-1.49,1.35-2.79,2.36-3.89,1-1.1,2.19-1.97,3.57-2.61,1.38-.64,2.87-.96,4.49-.96,2.14,0,3.86.28,5.17.84,1.31.56,2.28,1.2,2.92,1.93.46.59.72,1.35.79,2.29.07.93.1,1.9.1,2.9h-1.02Z"/>
  <path d="M9.18,13.41L1.7,29.99H0L10.02,7.57h1.53l7.61,18.14c.41,1,.91,1.79,1.5,2.38.59.59,1.27.93,2.04,1.02v.85c-.18.04-.44.08-.76.12-.33.04-.62.05-.87.05-.54,0-1.13-.05-1.75-.15-.62-.1-1.23-.31-1.83-.61-.6-.31-1.17-.75-1.7-1.32-.53-.58-1-1.35-1.41-2.33l-5.19-12.3Z"/>
  <path d="M146.81,13.41l-7.48,16.58h-1.7l10.02-22.43h1.53l7.61,18.14c.41,1,.91,1.79,1.5,2.38.59.59,1.27.93,2.04,1.02v.85c-.18.04-.44.08-.76.12-.33.04-.62.05-.87.05-.54,0-1.13-.05-1.75-.15-.62-.1-1.23-.31-1.83-.61-.6-.31-1.17-.75-1.7-1.32-.53-.58-1-1.35-1.41-2.33l-5.19-12.3Z"/>
  <g class="st7">
    <rect class="st6" x="64.37" y="1.77" width="38.52" height="30.21" transform="translate(42.12 91.41) rotate(-72.3)"/>
  </g>
  <text class="st5" transform="translate(26.59 45.14)"><tspan class="st8" x="0" y="0">DESIG</tspan><tspan class="st1" x="35.68" y="0">N </tspan><tspan class="st8" x="48.85" y="0">S</tspan><tspan class="st0" x="55.34" y="0">PAC</tspan><tspan class="st8" x="80.28" y="0">ES</tspan><tspan class="st0" x="93.58" y="0">, </tspan><tspan class="st8" x="102.88" y="0">I</tspan><tspan class="st0" x="107.1" y="0">N</tspan><tspan class="st8" x="115.62" y="0">S</tspan><tspan class="st0" x="122.11" y="0">P</tspan><tspan class="st8" x="129.39" y="0">I</tspan><tspan class="st0" x="133.61" y="0">R</tspan><tspan class="st3" x="141.02" y="0">E</tspan><tspan class="st0" x="147.83" y="0" xml:space="preserve"> L</tspan><tspan class="st8" x="158.68" y="0">IVI</tspan><tspan class="st1" x="175.32" y="0">N</tspan><tspan class="st4" x="183.83" y="0">G</tspan></text>
</svg>